<?xml version="1.0" standalone="no"?>
<!DOCTYPE svg PUBLIC "-//W3C//DTD SVG 20010904//EN"
 "http://www.w3.org/TR/2001/REC-SVG-20010904/DTD/svg10.dtd">
<svg version="1.0" xmlns="http://www.w3.org/2000/svg"
 width="430.000000pt" height="430.000000pt" viewBox="0 0 430.000000 430.000000"
 preserveAspectRatio="xMidYMid meet">
<metadata>
Created by potrace 1.14, written by Peter Selinger 2001-2017
</metadata>
<g transform="translate(0.000000,430.000000) scale(0.100000,-0.100000)"
fill="#000000" stroke="none">
<path d="M1310 3938 l0 -203 115 -1 115 0 0 203 0 203 -115 0 -115 0 0 -202z"/>
<path d="M749 3968 c-30 -18 -71 -42 -91 -52 l-36 -20 24 -45 c13 -25 29 -53
34 -61 5 -8 41 -68 79 -134 38 -66 72 -113 75 -107 4 6 40 29 79 51 40 22 78
44 86 49 13 8 1 32 -165 318 -11 18 -22 33 -25 33 -3 0 -30 -15 -60 -32z"/>
<path d="M2023 3988 c-6 -7 -22 -33 -35 -58 -14 -25 -56 -97 -92 -160 l-66
-115 36 -20 c20 -11 62 -36 93 -56 40 -25 60 -33 66 -25 14 15 195 332 195
340 0 3 -151 90 -181 104 -3 1 -11 -3 -16 -10z"/>
<path d="M203 3436 c-29 -51 -53 -95 -53 -98 0 -7 340 -202 344 -197 2 2 14
24 26 49 13 25 36 65 53 88 34 51 33 53 -48 97 -27 15 -97 54 -155 88 -58 33
-107 61 -110 62 -3 2 -29 -38 -57 -89z"/>
<path d="M1325 3523 c-16 -2 -66 -13 -110 -24 -346 -88 -593 -410 -593 -773 0
-190 65 -367 188 -513 l58 -70 -24 -28 c-158 -184 -191 -454 -82 -670 80 -158
204 -261 375 -310 l85 -25 1232 3 c677 1 1246 6 1265 10 58 11 166 56 229 95
143 88 247 218 304 382 27 76 28 82 34 195 9 150 -26 286 -107 421 -47 77
-154 182 -233 228 -47 28 -66 45 -67 60 -12 294 -112 529 -306 722 -185 182
-416 281 -678 289 -66 2 -142 -1 -170 -6 -27 -5 -63 -12 -80 -15 -149 -25
-350 -133 -482 -258 -36 -33 -68 -62 -71 -63 -4 -2 -16 10 -27 26 -98 139
-285 264 -460 306 -66 16 -213 25 -280 18z"/>
<path d="M20 2730 l0 -110 195 0 195 0 0 110 0 110 -195 0 -195 0 0 -110z"/>
<path d="M323 2222 c-84 -48 -158 -93 -164 -99 -7 -7 5 -36 41 -99 28 -48 52
-90 55 -92 3 -3 332 182 343 193 2 2 -12 28 -32 57 -19 30 -42 71 -51 91 -8
20 -21 37 -28 37 -6 0 -81 -40 -164 -88z"/>
<path d="M1530 500 l-180 -360 120 0 120 0 180 360 180 360 -120 0 -120 0
-180 -360z"/>
<path d="M2010 500 l-180 -360 120 0 120 0 180 360 180 360 -120 0 -120 0
-180 -360z"/>
<path d="M2490 500 l-180 -360 120 0 120 0 180 360 180 360 -120 0 -120 0
-180 -360z"/>
<path d="M2970 500 l-180 -360 120 0 120 0 180 360 180 360 -120 0 -120 0
-180 -360z"/>
</g>
</svg>
